<svg xmlns="http://www.w3.org/2000/svg" xmlns:xlink="http://www.w3.org/1999/xlink" width="256" height="256" viewBox="0 0 256 256">
  <defs>
    <clipPath id="clip-Personnalisée_1">
      <rect width="256" height="256"/>
    </clipPath>
  </defs>
  <g id="Personnalisée_1" data-name="Personnalisée – 1" clip-path="url(#clip-Personnalisée_1)">
    <rect width="256" height="256" fill="rgba(255,255,255,0)"/>
    <g id="Ellipse_1" data-name="Ellipse 1" fill="#fff" stroke="#efefef" stroke-width="5">
      <circle cx="128" cy="128" r="128" stroke="none"/>
      <circle cx="128" cy="128" r="125.5" fill="none"/>
    </g>
    <g id="Icon_feather-lock" data-name="Icon feather-lock" transform="translate(67.49 56)">
      <path id="Tracé_1" data-name="Tracé 1" d="M16.972,16.5h87.3a12.472,12.472,0,0,1,12.472,12.472v43.65a12.472,12.472,0,0,1-12.472,12.472h-87.3A12.472,12.472,0,0,1,4.5,72.622V28.972A12.472,12.472,0,0,1,16.972,16.5Z" transform="translate(0 42.622)" fill="none" stroke="#05f" stroke-linecap="round" stroke-linejoin="round" stroke-width="10"/>
      <path id="Tracé_2" data-name="Tracé 2" d="M10.5,59.122V34.179a31.179,31.179,0,0,1,62.358,0V59.122" transform="translate(18.943)" fill="none" stroke="#05f" stroke-linecap="round" stroke-linejoin="round" stroke-width="10"/>
    </g>
    <path id="Icon_material-done" data-name="Icon material-done" d="M14.306,25.826l-6.9-6.9-2.3,2.3,9.206,9.206L34.033,10.7l-2.3-2.3Z" transform="translate(108.89 128.337)" fill="#fff" stroke="#05f" stroke-linecap="round" stroke-linejoin="round" stroke-width="5"/>
  </g>
</svg>
